<?xml version="1.0" standalone="no"?>
<!DOCTYPE svg PUBLIC "-//W3C//DTD SVG 20010904//EN"
 "http://www.w3.org/TR/2001/REC-SVG-20010904/DTD/svg10.dtd">
<svg version="1.0" xmlns="http://www.w3.org/2000/svg"
 width="32.000000pt" height="32.000000pt" viewBox="0 0 32.000000 32.000000"
 preserveAspectRatio="xMidYMid meet">

<g transform="translate(0.000000,32.000000) scale(0.100000,-0.100000)"
fill="#000000" stroke="none">
<path d="M31 223 c-12 -10 -24 -35 -27 -55 -5 -30 -2 -41 19 -62 25 -25 31
-26 135 -26 126 0 149 10 158 72 5 30 2 41 -19 62 -25 25 -31 26 -135 26 -90
0 -114 -3 -131 -17z m87 -31 c2 -8 -5 -11 -20 -10 -19 3 -23 -2 -23 -22 0 -20
5 -25 23 -23 12 2 22 -1 22 -7 0 -15 -20 -22 -45 -16 -51 13 -39 100 12 94 15
-2 28 -9 31 -16z m66 12 c22 -9 20 -41 -4 -56 -11 -7 -20 -19 -20 -26 0 -28
-25 -4 -28 27 -6 56 9 71 52 55z m78 -9 c-2 -5 -8 -9 -13 -7 -16 4 -10 -16 7
-22 26 -10 14 -51 -15 -51 -13 0 -26 6 -29 14 -3 10 0 12 11 8 9 -3 19 -2 22
3 3 5 -4 11 -15 15 -20 6 -27 35 -13 49 11 10 49 3 45 -9z"/>
<path d="M160 180 c0 -5 5 -10 11 -10 5 0 7 5 4 10 -3 6 -8 10 -11 10 -2 0 -4
-4 -4 -10z"/>
</g>
</svg>
