<svg version="1.0" xmlns="http://www.w3.org/2000/svg" width="42.667" height="42.667" viewBox="0 0 32 32"><path d="M3.1 9.7c-1.2 1-2.4 3.5-2.7 5.5-.5 3-.2 4.1 1.9 6.2C4.8 23.9 5.4 24 15.8 24c12.6 0 14.9-1 15.8-7.2.5-3 .2-4.1-1.9-6.2C27.2 8.1 26.6 8 16.2 8c-9 0-11.4.3-13.1 1.7zm8.7 3.1c.2.8-.5 1.1-2 1-1.9-.3-2.3.2-2.3 2.2s.5 2.5 2.3 2.3c1.2-.2 2.2.1 2.2.7 0 1.5-2 2.2-4.5 1.6-5.1-1.3-3.9-10 1.2-9.4 1.5.2 2.8.9 3.1 1.6zm6.6-1.2c2.2.9 2 4.1-.4 5.6-1.1.7-2 1.9-2 2.6 0 2.8-2.5.4-2.8-2.7-.6-5.6.9-7.1 5.2-5.5zm7.8.9c-.2.5-.8.9-1.3.7-1.6-.4-1 1.6.7 2.2 2.6 1 1.4 5.1-1.5 5.1-1.3 0-2.6-.6-2.9-1.4-.3-1 0-1.2 1.1-.8.9.3 1.9.2 2.2-.3.3-.5-.4-1.1-1.5-1.5-2-.6-2.7-3.5-1.3-4.9 1.1-1 4.9-.3 4.5.9z"/><path d="M16 14c0 .5.5 1 1.1 1 .5 0 .7-.5.4-1-.3-.6-.8-1-1.1-1-.2 0-.4.4-.4 1z"/></svg>